<svg width="24" height="24" viewBox="0 0 24 24" fill="none" xmlns="http://www.w3.org/2000/svg">
<path fill-rule="evenodd" clip-rule="evenodd" d="M11.0016 17.8849C11.0016 18.1189 10.9086 18.3434 10.7431 18.5089C10.5776 18.6744 10.3532 18.7673 10.1191 18.7673C9.88506 18.7673 9.6606 18.6744 9.4951 18.5089C9.32961 18.3434 9.23663 18.1189 9.23663 17.8849H11.0016ZM11.1488 15.9434C11.3916 15.9434 11.59 16.1422 11.59 16.3847C11.59 16.6272 11.3916 16.8259 11.1488 16.8259H9.08979C8.84693 16.8259 8.64855 16.6272 8.64855 16.3847C8.64855 16.1422 8.84693 15.9434 9.08979 15.9434H11.1488ZM7.49887 7.49816C8.94612 6.0509 11.2924 6.0509 12.7397 7.49816C13.29 8.04842 13.6531 8.75795 13.7776 9.52615C13.9021 10.2944 13.7817 11.0822 13.4333 11.7782L11.8629 14.6984C11.8327 14.7545 11.7878 14.8014 11.7332 14.8341C11.6785 14.8668 11.616 14.8841 11.5522 14.8841H8.68632C8.62261 14.8841 8.56009 14.8668 8.5054 14.8341C8.45071 14.8014 8.40589 14.7545 8.37569 14.6984L6.80489 11.7782C6.45645 11.0822 6.33594 10.2942 6.46044 9.52596C6.58494 8.75769 6.94813 8.0481 7.49851 7.49781L7.49887 7.49816ZM3.41196 9.41313C3.59919 9.41313 3.77876 9.48751 3.91116 9.6199C4.04356 9.7523 4.11793 9.93187 4.11793 10.1191C4.11793 10.3063 4.04356 10.4859 3.91116 10.6183C3.77876 10.7507 3.59919 10.8251 3.41196 10.8251H2.70598C2.51874 10.8251 2.33917 10.7507 2.20678 10.6183C2.07438 10.4859 2 10.3063 2 10.1191C2 9.93187 2.07438 9.7523 2.20678 9.6199C2.33917 9.48751 2.51874 9.41313 2.70598 9.41313H3.41196ZM15.8598 4.37809C15.9921 4.51048 16.0665 4.69002 16.0665 4.87722C16.0665 5.06442 15.9921 5.24395 15.8598 5.37634L15.3606 5.87547C15.2952 5.94119 15.2174 5.9933 15.1318 6.0288C15.0461 6.0643 14.9542 6.08249 14.8615 6.08232C14.7219 6.08229 14.5854 6.04087 14.4694 5.96329C14.3533 5.88572 14.2628 5.77547 14.2094 5.64649C14.156 5.51751 14.142 5.37558 14.1692 5.23865C14.1965 5.10173 14.2637 4.97595 14.3624 4.87722L14.8615 4.37809C14.9939 4.24574 15.1734 4.17139 15.3606 4.17139C15.5478 4.17139 15.7274 4.24574 15.8598 4.37809ZM5.37669 4.37809L5.87582 4.87722C5.94325 4.94234 5.99703 5.02024 6.03403 5.10637C6.07103 5.1925 6.09051 5.28514 6.09132 5.37888C6.09214 5.47262 6.07427 5.56558 6.03878 5.65235C6.00328 5.73911 5.95086 5.81793 5.88457 5.88422C5.81829 5.95051 5.73946 6.00293 5.6527 6.03842C5.56594 6.07392 5.47298 6.09178 5.37924 6.09097C5.2855 6.09015 5.19286 6.07068 5.10673 6.03368C5.02059 5.99668 4.94269 5.9429 4.87757 5.87547L4.37844 5.37634C4.31101 5.31122 4.25723 5.23332 4.22023 5.14718C4.18323 5.06105 4.16376 4.96841 4.16294 4.87467C4.16213 4.78094 4.17999 4.68797 4.21549 4.60121C4.25098 4.51445 4.3034 4.43562 4.36969 4.36934C4.43598 4.30305 4.5148 4.25063 4.60156 4.21513C4.68832 4.17964 4.78129 4.16177 4.87503 4.16259C4.96877 4.1634 5.06141 4.18288 5.14754 4.21988C5.23367 4.25688 5.31157 4.31066 5.37669 4.37809ZM10.1191 2C10.3063 2 10.4859 2.07438 10.6183 2.20678C10.7507 2.33917 10.8251 2.51874 10.8251 2.70598V3.41196C10.8251 3.59919 10.7507 3.77876 10.6183 3.91116C10.4859 4.04356 10.3063 4.11794 10.1191 4.11794C9.93187 4.11794 9.7523 4.04356 9.6199 3.91116C9.48751 3.77876 9.41313 3.59919 9.41313 3.41196V2.70598C9.41313 2.51874 9.48751 2.33917 9.6199 2.20678C9.7523 2.07438 9.93187 2 10.1191 2Z" fill="white"/>
<path fill-rule="evenodd" clip-rule="evenodd" d="M18.0915 12.1756C18.08 12.1759 18.0684 12.1768 18.0569 12.1785L15.9824 12.458C15.9056 12.4685 15.836 12.5085 15.7883 12.5696L15.22 13.3034C15.1967 13.3333 15.1796 13.3675 15.1698 13.404C15.1599 13.4406 15.1576 13.4788 15.1628 13.5163L15.3947 15.188L13.6869 15.4185C13.6101 15.4287 13.5404 15.4687 13.4928 15.5297C13.4815 15.5442 13.4766 15.5622 13.4681 15.5792C13.4766 15.5622 13.4815 15.5439 13.4928 15.5297L12.9245 16.2639C12.9013 16.2938 12.8843 16.3281 12.8745 16.3646C12.8647 16.4012 12.8624 16.4393 12.8676 16.4768L13.1493 18.5083C13.1545 18.5459 13.1672 18.5822 13.1866 18.6149C13.206 18.6477 13.2317 18.6762 13.2623 18.6989C13.3247 18.7451 13.4028 18.7648 13.4797 18.7539L15.8455 18.4348L16.1667 20.7515C16.172 20.7892 16.1847 20.8254 16.2042 20.858C16.2236 20.8907 16.2494 20.9192 16.28 20.9418C16.3299 20.9787 16.3902 20.9991 16.4523 21H16.4625C16.4743 20.9999 16.4861 20.9989 16.4978 20.9972L18.5716 20.7173C18.6485 20.7071 18.7184 20.6672 18.7661 20.6061L19.3344 19.8719C19.3571 19.8424 19.3739 19.8089 19.3838 19.773C19.3943 19.736 19.3968 19.6971 19.3912 19.659L19.1597 17.9872L20.8671 17.7571C20.9439 17.7469 21.0137 17.7068 21.0612 17.6455L21.6295 16.9113C21.6528 16.8815 21.6699 16.8473 21.6798 16.8107C21.6897 16.7742 21.6921 16.736 21.6871 16.6985L21.4047 14.6667C21.3995 14.6291 21.3868 14.5929 21.3674 14.5603C21.348 14.5277 21.3223 14.4993 21.2917 14.4768C21.2294 14.4304 21.1513 14.4104 21.0743 14.421L18.7086 14.7404L18.3873 12.4238C18.3822 12.3861 18.3695 12.3499 18.3501 12.3172C18.3307 12.2845 18.305 12.2561 18.2744 12.2335C18.2247 12.1969 18.1649 12.1766 18.1032 12.1756H18.0912H18.0915Z" fill="#F09104"/>
<path fill-rule="evenodd" clip-rule="evenodd" d="M18.3534 17.8273L18.5969 18.0031L18.0562 18.6801L18.7685 19.1941L18.5839 19.4253L17.8712 18.9114L17.3304 19.5884L17.0869 19.413L17.628 18.7356L16.9153 18.2216L17.1003 17.9904L17.8126 18.5047L18.3534 17.8273ZM15.5662 15.6857L15.791 17.2467L14.1486 17.4602L13.9234 15.8993L15.5662 15.6857ZM15.305 16.013L14.2679 16.1478L14.4098 17.133L15.4465 16.9982L15.3046 16.013H15.305ZM19.9489 15.0373C20.4473 14.9723 20.9066 15.3038 20.9747 15.7775C21.0428 16.2505 20.6944 16.6872 20.1956 16.7521C19.6976 16.8171 19.238 16.4856 19.1698 16.0123C19.1017 15.5385 19.4505 15.1022 19.9489 15.0373ZM20.6718 15.8167C20.6266 15.5025 20.3206 15.2819 19.9902 15.325C19.6598 15.368 19.4275 15.6586 19.4727 15.9727C19.5182 16.2869 19.8239 16.5075 20.1543 16.4641C20.4847 16.4214 20.717 16.1309 20.6718 15.8167ZM16.9796 12.8816L18.2454 14.398L16.2344 14.6596L16.9796 12.8816ZM17.0682 13.4552L16.7123 14.3045L17.6728 14.1795L17.0682 13.4552Z" fill="white"/>
</svg>
