<svg width="18" height="16" viewBox="0 0 18 16" fill="none" xmlns="http://www.w3.org/2000/svg">
<path d="M8.40888 14.1096L8.40744 14.1083C6.14254 12.0545 4.34326 10.4181 3.09852 8.8952C1.86476 7.38579 1.28065 6.11048 1.28065 4.79564C1.28065 2.65484 2.94183 1 5.0763 1C6.29116 1 7.47372 1.57073 8.24117 2.46491L9 3.34905L9.75884 2.46491C10.5263 1.57073 11.7088 1 12.9237 1C15.0582 1 16.7193 2.65484 16.7193 4.79564C16.7193 6.11048 16.1352 7.38579 14.9015 8.8952C13.6567 10.4181 11.8575 12.0545 9.59256 14.1083L9.59113 14.1096L9 14.6477L8.40888 14.1096Z" stroke="#C0C0CC" stroke-width="2"/>
</svg>
